<?xml version="1.0" encoding="UTF-8"?>
<svg id="Layer_1" data-name="Layer 1" xmlns="http://www.w3.org/2000/svg" viewBox="0 0 1200 1200">
  <defs>
    <style>
      .cls-1 {
        letter-spacing: .12em;
      }

      .cls-2 {
        letter-spacing: .13em;
      }

      .cls-3 {
        font-family: Arial-Black, Arial;
        font-size: 95px;
        font-weight: 800;
      }

      .cls-3, .cls-4 {
        fill: #f47920;
      }

      .cls-4 {
        stroke-width: 0px;
      }

      .cls-5 {
        letter-spacing: .03em;
      }
    </style>
  </defs>
  <text class="cls-3" transform="translate(110.15 921.55) scale(.75 1)"><tspan class="cls-1" x="0" y="0">MAHANI</tspan><tspan class="cls-5" x="503.95" y="0">Y</tspan><tspan class="cls-2" x="580.76" y="0">A</tspan><tspan x="0" y="114">SOFTWARES</tspan></text>
  <g>
    <path class="cls-4" d="M828.99,654.37c19.97,10.29,43.33,21.73,69.42,34.02,6.51,3.07,12.95,6.19,19.33,9.35v-225.32c-10.41-.8-21.18-1.19-32.26-1.19-17.81,0-35.9,1.81-53.76,5.36-10.39,2.09-20.11,4.95-29.07,8.6-.07,7.34-.14,14.67-.18,22.01-.21,26.57-.18,53.01,0,79.26v52.89c8.09,5.09,16.94,10.11,26.53,15.02Z"/>
    <polygon class="cls-4" points="225.71 795.89 241.62 795.89 277.79 756.8 321.69 795.89 341 795.89 277.79 739.61 225.71 795.89"/>
    <path class="cls-4" d="M805.76,348.55h.08c-.11,3.11-.24,6.19-.35,9.31,29.12-6.19,58.99-9.31,88.98-9.31,7.98,0,15.75.09,23.27.3v-139.14c-.1.09-.19.19-.29.28v-56.55h-.21l.21-.18c-35.24-24.62-70.47-49.24-105.71-73.86-110.78,120.87-221.56,241.74-332.34,362.61l-253.7-119.26c0,143.8,0,287.59,0,431.39l52.09-56.28,63.21,56.28c.17-107.9.35-215.8.52-323.7,43.14,40.12,86.28,80.23,129.43,120.35l334.82-298.09v95.85Z"/>
    <path class="cls-4" d="M917.45,967.31h.29v-118.25c-11.53-7.59-24.46-14.99-38.63-22.15-21.6-10.89-45.07-22.49-69.81-34.46-2.29-1.1-4.56-2.22-6.83-3.35v177.98l51.78-37.84,63.21,38.06Z"/>
    <polygon class="cls-4" points="802.16 967.31 802.47 967.31 802.47 967.09 802.16 967.31"/>
    <path class="cls-4" d="M1073.69,853.71c-10.75-20.91-25.33-39.94-43.67-57.13-18.34-17.19-39.71-32.85-64.06-47-15.5-9.01-31.57-17.75-48.22-26.2-9.51-4.84-19.21-9.58-29.09-14.24-26.46-12.47-49.87-23.94-70.15-34.37-5.57-2.87-10.91-5.75-16.03-8.69-13.48-7.7-25.36-15.59-35.58-23.66-14.12-11.14-24.81-23.43-32.03-36.91-7.24-13.48-10.87-29.48-10.87-48.03,0-19.88,4.77-36.73,14.31-50.53,9.51-13.82,21.87-25.1,37.05-33.89,8.55-4.93,17.75-9.08,27.63-12.45,7.68-2.64,15.77-4.79,24.26-6.49,19.42-3.87,38.84-5.82,58.26-5.82,11.07,0,21.83.37,32.26,1.1,55.78,3.94,102.57,18.41,140.33,43.38v-95.53c-30.58-15.34-77.35-23.84-140.33-25.47-7.52-.21-15.29-.3-23.27-.3-30.42,0-60.34,3.32-89.71,10-2.29.53-4.61,1.05-6.9,1.63-31.59,7.75-59.75,19.56-84.46,35.38-24.69,15.84-44.66,35.97-59.81,60.41-15.18,24.44-22.77,53.17-22.77,86.18,0,26.96,4.84,50.48,14.56,70.52,9.7,20.06,23.02,37.99,39.96,53.83,16.94,15.84,36.89,30.33,59.84,43.47,18.02,10.32,37.12,20.52,57.29,30.63l115.27,58.46c10.2,6.14,19.56,12.4,28.08,18.82,15.89,11.97,28.34,25.2,37.32,39.69,9.01,14.49,13.5,31.52,13.5,51.06,0,36.38-13.5,64.29-40.49,83.66-27.01,19.37-67.86,29.07-122.57,29.07-15.89,0-33.2-1.51-51.91-4.56-18.71-3.03-37.32-7.31-55.85-12.88-18.52-5.55-36.18-12.38-52.94-20.47-16.78-8.09-31.16-17.19-43.15-27.28v100.07c9.86,6.4,23.02,12.22,39.43,17.45,16.42,5.23,33.79,9.61,52.16,13.14,18.34,3.53,36.34,6.24,53.99,8.09,17.65,1.83,32.46,2.77,44.48,2.77,35.99,0,70.22-3.46,102.71-10.36,32.49-6.9,61.14-18.11,86.04-33.61,24.88-15.5,44.64-35.65,59.29-60.41,14.65-24.76,21.99-55,21.99-90.74,0-26.94-5.39-50.87-16.16-71.76Z"/>
  </g>
</svg>