<?xml version="1.0" encoding="UTF-8"?>
<svg id="Layer_2" data-name="Layer 2" xmlns="http://www.w3.org/2000/svg" xmlns:xlink="http://www.w3.org/1999/xlink" viewBox="0 0 1326 1228.65">
  <defs>
    <style>
      .cls-1 {
        fill: url(#linear-gradient);
        opacity: .9;
        stroke: #199356;
        stroke-width: 24.58px;
      }

      .cls-1, .cls-2 {
        stroke-miterlimit: 10;
      }

      .cls-3 {
        stroke-width: 0px;
      }

      .cls-2 {
        fill: #ed1f24;
        stroke: #fff;
        stroke-width: 11.02px;
      }
    </style>
    <linearGradient id="linear-gradient" x1="133.56" y1="541.39" x2="1191.76" y2="541.39" gradientUnits="userSpaceOnUse">
      <stop offset="0" stop-color="#15345b"/>
      <stop offset=".48" stop-color="#0b5580"/>
      <stop offset="1" stop-color="#2f5b7e"/>
    </linearGradient>
  </defs>
  <g id="Layer_1-2" data-name="Layer 1">
    <g>
      <circle class="cls-1" cx="662.66" cy="541.39" r="529.1"/>
      <g>
        <path class="cls-3" d="m8.6,459.73l6.93.64-.49,5.35c-.34,3.77-.06,6.31.84,7.61s3.54,2.15,7.91,2.55l54.44,4.98c4.33.4,7.05.05,8.18-1.05,1.13-1.1,1.87-3.55,2.21-7.37l.49-5.35,6.87.63-7.58,82.87-32.82-3,.62-6.81c10.18.93,17.2-.13,21.07-3.17s6.26-9.57,7.18-19.58l2.17-23.72-31.16-2.85-.83,9.03c-.56,6.15.12,10.12,2.05,11.93,1.93,1.8,6.42,3.03,13.45,3.67l-.61,6.62-42.8-3.92.61-6.62c8.2.58,13.53.06,15.98-1.55,2.45-1.62,3.94-5.24,4.46-10.88l.82-8.91-35.55-3.25-2.33,25.44c-.84,9.2.47,15.55,3.93,19.03,3.46,3.48,10.98,5.83,22.54,7.06l-.62,6.74-35.56-3.26,7.59-82.87Z"/>
        <path class="cls-3" d="m0,569.5l6.94-.56.26,3.24c.22,2.72,1.39,5.44,3.51,8.18,2.12,2.73,5.15,5.46,9.09,8.17l26.78,18.15,25.47-22.56c3.58-3.2,6.03-5.97,7.34-8.32,1.3-2.35,1.85-4.84,1.64-7.47l-.28-3.5,6.88-.55,3.35,41.44-6.88.56-.4-4.97c-.17-2.12-.55-3.7-1.15-4.72-.6-1.02-1.38-1.49-2.36-1.41-.59.05-1.23.24-1.91.6-.68.35-1.39.86-2.15,1.52l-18.7,16.76,19.79,14.16.48.34c2.54,1.8,4.55,2.65,6.03,2.53.72-.06,1.25-.61,1.6-1.67.34-1.05.44-2.47.3-4.25l-.5-6.11,6.88-.56,3.03,37.5-6.88.55-.36-4.4c-.22-2.72-1.16-5.2-2.81-7.46-1.66-2.26-4.27-4.57-7.83-6.92l-26.49-17.79-27.48,23.88c-3.11,2.73-5.4,5.65-6.88,8.76-1.48,3.11-2.09,6.24-1.84,9.37l.29,3.57-6.94.56-3.65-45.14,6.94-.56.37,4.59c.21,2.63.62,4.68,1.23,6.14s1.34,2.16,2.19,2.1c.59-.05,1.18-.21,1.75-.49.57-.28,1.2-.71,1.88-1.28l21.26-19.15-23.33-15.99c-1.04-.73-1.82-1.19-2.35-1.38-.53-.19-1.05-.27-1.56-.23-1.23.1-2.08.69-2.55,1.78-.47,1.08-.61,2.75-.43,5l.46,5.73-6.94.56-3.1-38.33Z"/>
        <path class="cls-3" d="m34.25,707.81c-4.26,1.06-6.73,2.29-7.43,3.72-.7,1.42-.59,3.97.32,7.65l1.57,6.32-6.76,1.68-10.39-41.9,6.76-1.68,1.29,5.21c.91,3.67,2.01,5.98,3.29,6.91,1.28.93,4.05.87,8.31-.19l53.07-13.15c4.21-1.05,6.67-2.27,7.38-3.67.71-1.4.6-3.97-.33-7.68l-1.29-5.21,6.7-1.66,9.82,39.61c3.47,14.01,4.16,24.41,2.08,31.2-2.09,6.79-7.23,11.2-15.41,13.23-4.34,1.07-8.34,1.15-11.98.24-3.65-.92-6.95-2.83-9.91-5.74-2.16-2.14-4.08-5.2-5.76-9.17-1.68-3.97-3.46-9.69-5.31-17.17l-3.5-14.13-22.51,5.58Zm29.2-7.24l3.5,14.14c2.08,8.39,4.97,14.27,8.69,17.65,3.71,3.38,8.36,4.38,13.94,2.99,6.03-1.49,9.85-4.46,11.45-8.89,1.6-4.43,1.23-11.36-1.1-20.78l-3.31-13.33-33.17,8.22Z"/>
        <path class="cls-3" d="m79.08,771.09c6.24-2.74,12.53-4.16,18.89-4.25,6.35-.1,12.51,1.13,18.46,3.68,5.17,2.24,9.85,5.52,14.02,9.85,4.18,4.33,7.54,9.37,10.07,15.14,2.54,5.77,3.98,11.65,4.34,17.66.36,6-.38,11.67-2.23,16.99-2.17,6.16-5.43,11.54-9.77,16.11-4.33,4.58-9.64,8.25-15.92,11.01-6.31,2.77-12.64,4.21-18.96,4.32-6.33.1-12.49-1.13-18.51-3.7-5.17-2.24-9.85-5.52-14.02-9.85-4.18-4.33-7.54-9.37-10.07-15.14-2.54-5.77-3.98-11.65-4.34-17.66-.36-6.01.38-11.67,2.23-16.99,2.15-6.1,5.42-11.47,9.81-16.1,4.39-4.62,9.72-8.32,15.99-11.08Zm5.73,13.04c-10.92,4.8-18.42,11.36-22.53,19.7-4.1,8.34-4.16,17.05-.17,26.13,3.99,9.08,10.44,14.93,19.36,17.55,8.92,2.62,18.83,1.53,29.75-3.27,10.92-4.8,18.41-11.34,22.48-19.64,4.07-8.3,4.11-17.01.1-26.14-3.99-9.08-10.43-14.94-19.3-17.57-8.88-2.63-18.78-1.55-29.69,3.25Z"/>
        <path class="cls-3" d="m118.34,910.89c-3.63,2.47-5.53,4.48-5.69,6.06-.16,1.58.82,3.93,2.95,7.07l3.66,5.39-5.76,3.91-24.25-35.72,5.76-3.91,3.01,4.44c2.13,3.14,3.96,4.92,5.48,5.35,1.53.43,4.11-.58,7.74-3.05l45.23-30.71c3.6-2.44,5.48-4.44,5.65-6,.17-1.56-.81-3.92-2.97-7.1l-3.01-4.44,5.71-3.88,25.5,37.57c7.65,11.27,11.73,20.34,12.24,27.19.51,6.86-2.42,12.46-8.8,16.78-4.9,3.32-9.93,4.32-15.1,2.99-5.17-1.33-10.33-4.95-15.48-10.87,2.34,5.57,2.96,10.43,1.88,14.59-1.09,4.16-3.96,8.04-8.6,11.67-1.59,1.23-3.7,2.77-6.36,4.62-5.96,4.26-8.13,7.58-6.51,9.98.91,1.33,2.34,1.75,4.29,1.25,1.95-.5,5.73-2.49,11.33-5.99l3.51,5.18-1.22.83c-6.55,4.44-11.97,6.7-16.24,6.78-4.28.07-7.85-2.01-10.72-6.24-2.49-3.66-3.36-7.13-2.63-10.41s3.07-6.38,7-9.3l8.64-6.49c5.39-3.96,8.42-8.17,9.1-12.63.68-4.45-.91-9.53-4.79-15.24l-9.51-14.01-21.08,14.31Zm26.95-18.29l9.5,14.01c5.07,7.47,9.92,12.17,14.55,14.09,4.63,1.93,9.36,1.25,14.18-2.02,4.23-2.87,6.2-6.6,5.91-11.19-.29-4.59-2.88-10.5-7.78-17.72l-10.15-14.96-26.21,17.79Z"/>
        <path class="cls-3" d="m192.78,952.7l25-23.57,55.29,58.65-25,23.57-4.69-4.97c7.5-7.31,11.54-13.51,12.11-18.62.57-5.1-2.09-10.79-7.99-17.04l-2.8-2.97-46.75,44.07c-3.19,3.01-4.74,5.31-4.65,6.89.09,1.58,1.43,3.75,4.03,6.51l5.65,5.99-5.07,4.78-32.77-34.76,5.07-4.77,5.65,5.99c2.6,2.76,4.69,4.23,6.26,4.41,1.58.19,3.96-1.23,7.15-4.24l46.75-44.07-2.8-2.98c-5.9-6.26-11.4-9.25-16.5-8.98-5.1.27-11.55,3.94-19.34,11l-4.6-4.88Z"/>
        <path class="cls-3" d="m291.69,1113.22l19.03-67.56.11-.3c2.49-8.67,1.81-14.19-2.03-16.55l-3.32-2.05,3.62-5.87,31.54,19.43-3.62,5.87-4.35-2.68c-2.28-1.41-4-2.1-5.16-2.09s-2.17.72-3.04,2.14c-.23.36-.45.84-.69,1.42-.23.58-.51,1.33-.82,2.23l-16.24,56.09,44.04-36.79,1.31-4.44c.6-2.03.58-3.75-.06-5.14-.64-1.4-2.16-2.83-4.55-4.3l-3.75-2.31,3.62-5.87,32.63,20.1-3.62,5.87-5.06-3.11c-2.5-1.54-4.28-2.33-5.34-2.35-1.06-.03-1.98.59-2.76,1.86-.27.44-.53.96-.79,1.58s-.5,1.31-.71,2.07l-15.16,57.5,41.21-36.95c1.2-1.06,2.28-2.11,3.22-3.15.94-1.04,1.64-1.93,2.09-2.65.74-1.2.85-2.29.33-3.28-.51-.99-1.79-2.12-3.82-3.36l-5.33-3.28,3.62-5.87,28.28,17.42-3.62,5.87-2.99-1.84c-2.14-1.32-4.1-1.76-5.89-1.34s-4.53,2.27-8.25,5.54l-54.53,48.47-8.7-5.36,14.9-58.41-46.66,38.85-8.7-5.36Z"/>
        <path class="cls-3" d="m388.94,1167.57l2.68-6.42,5.48,2.29c3.5,1.46,5.99,1.95,7.48,1.46s3.09-2.75,4.78-6.8l21.06-50.45c1.67-4.01,2.16-6.71,1.45-8.11-.71-1.4-2.81-2.83-6.31-4.29l-5.48-2.29,2.66-6.37,39.96,16.68-2.66,6.37-5.42-2.26c-3.53-1.47-6.04-1.97-7.51-1.47-1.47.49-3.05,2.74-4.72,6.75l-21.07,50.45c-1.69,4.05-2.18,6.77-1.47,8.17.71,1.4,2.81,2.83,6.31,4.3l5.42,2.26-2.68,6.42-39.96-16.68Z"/>
        <path class="cls-3" d="m462.8,1140.83l9.16-33.12,77.68,21.48-9.16,33.12-6.59-1.82c2.63-10.14,2.86-17.54.71-22.2-2.16-4.66-7.38-8.14-15.67-10.43l-3.94-1.09-17.13,61.93c-1.17,4.23-1.31,7-.41,8.31.9,1.31,3.17,2.47,6.82,3.47l7.94,2.2-1.86,6.71-46.04-12.73,1.85-6.71,7.94,2.2c3.65,1.01,6.2,1.18,7.64.52s2.75-3.11,3.92-7.33l17.13-61.93-3.94-1.09c-8.29-2.3-14.54-2-18.76.87-4.22,2.88-7.83,9.36-10.84,19.44l-6.46-1.79Z"/>
        <path class="cls-3" d="m549.38,1218.98l.66-6.93,5.34.51c3.77.36,6.31.09,7.62-.81,1.31-.9,2.17-3.54,2.58-7.9l5.19-54.43c.41-4.32.07-7.05-1.02-8.18-1.09-1.13-3.54-1.88-7.36-2.25l-5.34-.51.65-6.87,42.98,4.1-.66,6.87-6.49-.62c-3.81-.36-6.36-.09-7.65.81-1.29.9-2.13,3.51-2.55,7.84l-2.22,23.27,46.8,4.47,2.22-23.27c.41-4.32.07-7.05-1.02-8.18-1.09-1.13-3.54-1.88-7.36-2.24l-6.36-.61.65-6.87,42.98,4.11-.66,6.87-5.47-.52c-3.81-.36-6.36-.09-7.65.81-1.28.9-2.13,3.52-2.54,7.84l-5.2,54.43c-.41,4.37-.07,7.11,1.04,8.24,1.11,1.13,3.55,1.88,7.33,2.24l5.47.52-.66,6.93-42.98-4.1.66-6.93,6.36.61c3.77.36,6.31.09,7.62-.81,1.31-.9,2.17-3.54,2.58-7.9l2.31-24.23-46.8-4.47-2.31,24.23c-.42,4.36-.07,7.11,1.04,8.25s3.55,1.88,7.33,2.24l6.48.62-.66,6.93-42.98-4.1Z"/>
        <path class="cls-3" d="m794.01,1181.8l7.76-1.24c.95,11.32-1.21,20.37-6.49,27.14-5.28,6.77-13.44,11.05-24.5,12.82-12.95,2.07-24.12-.51-33.52-7.77-9.4-7.25-15.2-17.75-17.39-31.5-1.03-6.39-.87-12.63.46-18.73,1.33-6.1,3.72-11.58,7.17-16.44,3.39-4.68,7.5-8.51,12.33-11.48,4.83-2.97,10.08-4.91,15.76-5.82,4.75-.76,9.47-.64,14.16.35,4.69,1,9.52,2.93,14.51,5.8l1.96-8.4,5.93-.95,5.39,33.68-6.56,1.05c-2.23-8.52-6.41-15.01-12.56-19.46-6.15-4.45-13.11-6.05-20.89-4.81-8.57,1.37-15.1,6.11-19.56,14.19-4.46,8.09-5.81,17.68-4.03,28.78,1.88,11.77,6.16,20.66,12.84,26.66,6.67,6,14.78,8.24,24.33,6.72,7.74-1.24,13.56-4.47,17.47-9.69,3.91-5.22,5.72-12.18,5.45-20.89Z"/>
        <path class="cls-3" d="m819.9,1164.4c-2.21-6.44-3.1-12.83-2.66-19.17.43-6.34,2.17-12.37,5.2-18.09,2.66-4.97,6.32-9.35,10.98-13.16,4.66-3.81,9.97-6.73,15.93-8.78,5.96-2.05,11.95-3,17.96-2.86,6.02.14,11.6,1.36,16.75,3.64,5.96,2.68,11.04,6.37,15.25,11.08,4.2,4.7,7.42,10.29,9.64,16.78,2.24,6.52,3.15,12.94,2.73,19.26-.42,6.31-2.16,12.35-5.22,18.13-2.66,4.97-6.32,9.35-10.98,13.15-4.66,3.81-9.97,6.73-15.93,8.78-5.96,2.05-11.95,3-17.96,2.86-6.01-.14-11.59-1.35-16.75-3.64-5.91-2.65-10.98-6.36-15.23-11.11s-7.48-10.37-9.71-16.86Zm13.47-4.62c3.87,11.28,9.79,19.31,17.76,24.09,7.97,4.79,16.64,5.56,26.03,2.34,9.38-3.22,15.75-9.16,19.1-17.84,3.35-8.67,3.09-18.64-.78-29.91-3.87-11.27-9.78-19.29-17.71-24.04-7.93-4.75-16.61-5.51-26.04-2.27-9.38,3.22-15.76,9.15-19.12,17.77-3.36,8.63-3.11,18.58.76,29.85Z"/>
        <path class="cls-3" d="m1023.9,1121.57l-9.65,5.51-84.52-39.54,29.4,51.47c2.17,3.81,4.03,5.86,5.57,6.15,1.54.3,3.96-.5,7.25-2.37l5.71-3.26,3.46,6.04-33.89,19.36-3.45-6.04,4.44-2.54c3.29-1.88,5.21-3.56,5.75-5.05.55-1.49-.27-4.14-2.44-7.94l-27.06-47.36c-2.17-3.81-4.05-5.86-5.62-6.17-1.57-.3-4,.48-7.29,2.36l-4.44,2.54-3.42-5.99,25.57-14.6,78.23,36.51-26.74-46.81c-2.17-3.81-4.04-5.87-5.59-6.18-1.55-.31-3.97.47-7.26,2.35l-6.04,3.45-3.42-5.99,33.55-19.17,3.42,5.99-3.77,2.15c-3.29,1.88-5.19,3.57-5.71,5.07-.52,1.5.31,4.15,2.49,7.96l35.48,62.11Z"/>
        <path class="cls-3" d="m1054.46,1100.28l-4.45-5.35,4.12-3.43c2.91-2.42,4.51-4.42,4.79-5.98.28-1.56-.99-4.03-3.79-7.4l-34.98-42.01c-2.78-3.34-4.95-5.02-6.52-5.04-1.57-.02-3.83,1.19-6.77,3.65l-4.13,3.43-4.41-5.3,61.74-51.42,22.35,26.85-5.25,4.38-1.02-1.23c-6.65-7.99-12.44-12.28-17.37-12.88-4.93-.6-11.24,2.3-18.93,8.7l-16.1,13.41,20.02,24.05,5.45-4.53c4.71-3.92,7.02-7.19,6.92-9.8s-2.42-6.65-6.97-12.11l5.15-4.29,27.5,33.03-5.15,4.29c-5.36-6.23-9.47-9.65-12.35-10.24-2.88-.59-6.48.91-10.8,4.5l-5.35,4.46,16.67,20.02c2.81,3.37,5,5.06,6.59,5.07,1.59,0,3.84-1.2,6.75-3.62l5.01-4.17,4.45,5.35-33.18,27.63Z"/>
        <path class="cls-3" d="m1132.12,1032.27l-5.1-4.74,4.05-4.35c2.58-2.77,3.91-4.94,3.97-6.51s-1.51-3.85-4.72-6.84l-40.01-37.26c-3.18-2.96-5.55-4.35-7.11-4.17s-3.63,1.65-6.21,4.42l-4.05,4.35-5.05-4.7,29.51-31.69,5.05,4.7-4,4.3c-2.61,2.8-3.94,4.98-3.99,6.54-.05,1.55,1.51,3.81,4.69,6.77l40.01,37.26c3.21,2.99,5.59,4.4,7.15,4.22,1.56-.17,3.63-1.65,6.21-4.42l4-4.3,5.09,4.74-29.51,31.69Z"/>
        <path class="cls-3" d="m1176.88,984.64l-5.7-4,3.08-4.4c2.17-3.1,3.19-5.44,3.05-7.02-.14-1.58-2-3.63-5.59-6.15l-44.75-31.41c-3.56-2.49-6.09-3.55-7.61-3.16-1.52.39-3.38,2.15-5.58,5.29l-3.08,4.39-5.65-3.96,24.51-34.92c6.14-8.75,11.28-14.89,15.43-18.43,4.15-3.53,8.64-5.97,13.48-7.31,5.89-1.64,11.97-1.77,18.25-.38,6.28,1.39,12.51,4.25,18.68,8.58,5.65,3.96,10.22,8.58,13.73,13.85,3.51,5.27,5.59,10.66,6.25,16.17.69,5.53.12,10.99-1.74,16.38-1.85,5.38-5.99,12.64-12.39,21.77l-24.36,34.71Zm-50.48-68.82l60.49,42.45,8.66-12.34c7.66-10.91,10.75-20.58,9.29-29.02-1.46-8.44-7.67-16.5-18.61-24.18-9.97-7-19.1-9.64-27.41-7.92-8.3,1.72-16.2,7.91-23.68,18.57l-8.73,12.44Z"/>
        <path class="cls-3" d="m1243.91,885.03l-6.31-2.94,2.27-4.86c1.6-3.43,2.2-5.92,1.78-7.45s-2.61-3.22-6.59-5.08l-49.55-23.09c-3.94-1.83-6.62-2.43-8.05-1.78s-2.95,2.71-4.57,6.18l-2.27,4.86-6.25-2.91,35.15-75.43,29.87,13.92-2.89,6.19c-9.26-4.31-16.23-5.69-20.9-4.14-4.67,1.56-9.13,6.89-13.37,16l-10.06,21.59,28.37,13.22,3.83-8.22c2.61-5.6,3.31-9.57,2.1-11.92-1.21-2.35-5.01-5.01-11.42-8l2.8-6.02,38.96,18.16-2.81,6.02c-7.52-3.32-12.71-4.63-15.57-3.94-2.86.69-5.48,3.6-7.88,8.73l-3.78,8.11,32.36,15.08,10.79-23.16c3.9-8.38,4.81-14.79,2.73-19.24-2.09-4.45-8.36-9.2-18.82-14.27l2.86-6.14,32.36,15.08-35.15,75.43Z"/>
        <path class="cls-3" d="m1313.25,695.54l-2.8,10.75-87.35,32.84,57.36,14.93c4.24,1.11,7.01,1.21,8.3.31,1.29-.89,2.41-3.18,3.36-6.85l1.66-6.36,6.74,1.75-9.83,37.77-6.74-1.75,1.29-4.94c.96-3.67,1.09-6.22.41-7.65-.68-1.43-3.15-2.7-7.39-3.8l-52.79-13.74c-4.24-1.1-7.02-1.2-8.34-.29s-2.45,3.2-3.4,6.87l-1.29,4.94-6.68-1.74,7.42-28.49,80.78-30.45-52.17-13.58c-4.24-1.11-7.02-1.21-8.33-.32-1.31.89-2.44,3.17-3.4,6.84l-1.75,6.74-6.67-1.74,9.73-37.4,6.67,1.74-1.09,4.2c-.96,3.67-1.08,6.21-.37,7.63.71,1.41,3.19,2.68,7.43,3.78l69.23,18.02Z"/>
        <path class="cls-3" d="m1293.35,581.8l.6-7.83c11.23,1.71,19.52,5.92,24.88,12.63,5.36,6.71,7.61,15.65,6.76,26.81-1,13.08-6.11,23.34-15.35,30.79-9.24,7.46-20.8,10.65-34.68,9.59-6.45-.5-12.49-2.09-18.11-4.81s-10.4-6.31-14.33-10.8c-3.77-4.39-6.53-9.27-8.3-14.66-1.77-5.39-2.43-10.95-1.99-16.68.36-4.8,1.58-9.36,3.64-13.69,2.06-4.33,5.07-8.58,9.01-12.77l-7.71-3.85.45-5.99,34.01,2.59-.51,6.62c-8.81.18-16.09,2.74-21.85,7.69-5.76,4.94-8.94,11.34-9.54,19.19-.66,8.66,2.42,16.11,9.25,22.32,6.83,6.22,15.85,9.76,27.05,10.61,11.89.91,21.53-1.19,28.92-6.28,7.39-5.1,11.45-12.46,12.19-22.1.59-7.81-1.19-14.23-5.35-19.24-4.17-5.01-10.52-8.4-19.05-10.16Z"/>
        <path class="cls-3" d="m1326,550.06l-6.93.64-.5-5.34c-.35-3.77-1.09-6.22-2.22-7.33-1.13-1.12-3.88-1.47-8.24-1.07l-54.44,5.03c-4.33.4-6.94,1.24-7.85,2.52-.91,1.28-1.19,3.83-.83,7.64l.5,5.34-6.87.64-7.66-82.87,32.82-3.04.63,6.8c-10.18.94-16.89,3.26-20.14,6.96-3.25,3.7-4.41,10.55-3.49,20.56l2.19,23.72,31.16-2.88-.83-9.03c-.57-6.15-1.96-9.93-4.19-11.35-2.22-1.42-6.86-1.81-13.9-1.15l-.61-6.61,42.8-3.96.61,6.62c-8.17.93-13.31,2.41-15.43,4.44-2.12,2.04-2.92,5.87-2.4,11.51l.82,8.9,35.55-3.29-2.35-25.44c-.85-9.2-3.3-15.19-7.34-17.99-4.04-2.79-11.86-3.73-23.45-2.83l-.62-6.74,35.55-3.29,7.66,82.87Z"/>
      </g>
      <g>
        <path class="cls-2" d="m525.58,456.32v-.02s-102.66-56.47-102.66-56.47c-3.26-1.79-7.24.61-7.16,4.33l2.12,103.2c.18,8.63,4.95,16.51,12.51,20.67l97.77,53.78v.02s97.77,53.78,97.77,53.78c7.56,4.16,12.33,12.04,12.51,20.67l6.58,320.82c.38,18.6-19.51,30.63-35.81,21.66l-73.33-40.35v-.02s-109.99-60.5-109.99-60.5v-.02s-97.77-53.8-97.77-53.8c-7.56-4.16-12.33-12.04-12.51-20.67l-1.43-69.73c-.38-18.6,19.51-30.63,35.81-21.66l73.3,40.35h.02s102.66,56.49,102.66,56.49c3.26,1.79,7.24-.61,7.16-4.33l-2.4-117.15h-.02s-109.97-60.53-109.97-60.53h-.02s-97.75-53.8-97.75-53.8c-7.56-4.16-12.33-12.04-12.51-20.67l-6.58-320.8c-.38-18.6,19.51-30.63,35.81-21.66l73.33,40.35v.02s109.99,60.5,109.99,60.5l97.77,53.8c7.56,4.16,12.33,12.04,12.51,20.67l1.43,69.74c.38,18.59-19.51,30.63-35.8,21.67l-73.33-40.34Z"/>
        <path class="cls-2" d="m801.29,701.62h.02s107.39-64.99,107.39-64.99h.02s95.46-57.77,95.46-57.77c7.38-4.47,11.82-12.54,11.65-21.17l-6.58-320.8c-.38-18.6-20.75-29.81-36.66-20.18l-274.51,166.09c-7.39,4.47-11.83,12.54-11.65,21.17l1.43,69.73c.38,18.6,20.75,29.81,36.66,20.18l71.61-43.33,100.26-60.64c3.18-1.92,7.26.32,7.33,4.04l2.12,103.2c.18,8.63-4.27,16.7-11.65,21.17l-95.48,57.75v.02s-95.48,57.75-95.48,57.75c-7.39,4.47-11.83,12.54-11.65,21.17l6.58,320.82c.38,18.6,20.75,29.81,36.66,20.18l71.61-43.33v-.02s107.42-64.99,107.42-64.99h.02s95.46-57.77,95.46-57.77c7.38-4.47,11.82-12.54,11.65-21.17l-1.43-69.73c-.38-18.6-20.75-29.81-36.67-20.18l-71.59,43.32h-.02s-100.23,60.66-100.23,60.66c-3.18,1.93-7.26-.32-7.33-4.03l-2.43-117.15Z"/>
        <g>
          <line class="cls-2" x1="961.78" y1="159.81" x2="961.39" y2="159.81"/>
          <polygon class="cls-2" points="656.61 342.86 632.72 331.27 536.41 278.28 440.11 225.3 440.11 225.28 344.19 172.5 344.19 172.48 960.75 159.83 679.24 330.15 656.61 342.86"/>
        </g>
      </g>
    </g>
  </g>
</svg>